<?xml version="1.0" encoding="UTF-8" standalone="no"?><!DOCTYPE svg PUBLIC "-//W3C//DTD SVG 1.1//EN" "http://www.w3.org/Graphics/SVG/1.1/DTD/svg11.dtd"><svg width="100%" height="100%" viewBox="0 0 213 95" version="1.1" xmlns="http://www.w3.org/2000/svg" xmlns:xlink="http://www.w3.org/1999/xlink" xml:space="preserve" xmlns:serif="http://www.serif.com/" style="fill-rule:evenodd;clip-rule:evenodd;stroke-linejoin:round;stroke-miterlimit:2;"><g><g><path id="Forgorn" d="M39.294,26.554c-2.296,0.003 -4.458,0.397 -6.486,1.173c-2.027,0.738 -3.794,1.755 -5.299,3.05c-1.474,1.255 -2.64,2.733 -3.498,4.437c-0.825,1.695 -1.218,3.504 -1.181,5.432c0.038,1.929 0.501,3.774 1.39,5.542c0.92,1.779 2.136,3.372 3.647,4.782c1.541,1.397 3.329,2.566 5.365,3.505c2.034,0.92 4.189,1.484 6.464,1.683c2.275,0.198 4.419,0 6.433,-0.601c2.014,-0.64 3.758,-1.586 5.231,-2.842c1.506,-1.294 2.678,-2.858 3.517,-4.69c0.871,-1.839 1.3,-3.828 1.282,-5.959c-0.018,-2.131 -0.479,-4.159 -1.385,-6.073c-0.875,-1.905 -2.083,-3.555 -3.624,-4.95c-1.511,-1.412 -3.29,-2.509 -5.339,-3.294c-2.049,-0.803 -4.222,-1.199 -6.517,-1.195Zm34.512,-0.06c-2.296,0.003 -4.445,0.437 -6.449,1.293c-1.972,0.816 -3.686,1.942 -5.142,3.375c-1.423,1.392 -2.541,3.032 -3.353,4.922c-0.813,1.882 -1.21,3.889 -1.193,6.027c0.017,2.197 0.461,4.268 1.331,6.222c0.901,1.965 2.1,3.707 3.597,5.227c1.527,1.534 3.305,2.797 5.332,3.787c2.027,0.999 4.177,1.601 6.453,1.8c1.548,0.135 3.048,0.063 4.501,-0.221c1.454,-0.286 2.797,-0.759 4.029,-1.421c1.265,-0.664 2.403,-1.487 3.415,-2.469c1.014,-1.02 1.885,-2.168 2.615,-3.445l0.01,-10.768l-12.244,-0.437l0.015,6.573l2.853,0.153c-0.633,0.753 -1.392,1.339 -2.278,1.758c-0.887,0.386 -1.868,0.546 -2.945,0.481c-0.92,-0.056 -1.791,-0.263 -2.617,-0.621c-0.793,-0.386 -1.492,-0.873 -2.097,-1.459c-0.605,-0.616 -1.083,-1.33 -1.436,-2.144c-0.352,-0.811 -0.532,-1.674 -0.536,-2.591c-0.004,-0.915 0.151,-1.765 0.464,-2.548c0.314,-0.784 0.74,-1.444 1.278,-1.979c0.569,-0.567 1.235,-0.995 1.997,-1.283c0.762,-0.32 1.604,-0.469 2.526,-0.446c0.826,0.02 1.67,0.182 2.529,0.485c0.859,0.273 1.574,0.668 2.148,1.188l5.766,-8.075c-0.701,-0.611 -1.576,-1.173 -2.628,-1.685c-0.893,-0.446 -1.994,-0.841 -3.301,-1.188c-1.308,-0.344 -2.855,-0.514 -4.641,-0.511l0.001,-0Zm-71.767,0.727l0.208,26.441l9.191,0.957l0.071,-10.467l9.608,0.296l-0.232,-7.247l-9.825,-0.268l-0.067,-2.885l9.976,0.192l-0.14,-7.014l-18.79,-0.005Zm89.158,0.022l-0.047,32.5l10.099,0.86l0.05,-12.352l5.659,0.303l-0.067,12.53l10.147,0.864l0.265,-34.698l-10.232,-0.004l-0.061,11.516l-5.673,-0.165l0.044,-11.352l-10.184,-0.002Zm63.113,6.996l-0.578,30.833l10.1,0.86l0.167,-9.798l4.574,10.202l11.851,1.01l-5.677,-13.559c0.806,-0.668 1.536,-1.502 2.19,-2.501c0.557,-0.887 1.072,-2.018 1.544,-3.393c0.472,-1.377 0.727,-3.064 0.766,-5.06c0.05,-2.515 -0.271,-4.738 -0.965,-6.667c-0.663,-1.962 -1.618,-3.604 -2.866,-4.924c-1.25,-1.314 -2.745,-2.307 -4.486,-2.98c-1.709,-0.667 -3.583,-1 -5.623,-1.001l-10.997,6.978Zm27.014,-6.973l-0.804,40.088l10.834,0.844l0.341,-15.709l8.335,16.448l8.345,0.711l1.033,-42.375l-9.993,-0.002l-0.366,16.002l-8.432,-16.005l-9.293,-0.002Zm-17.008,10.432l0.524,0.012c1.208,0.028 2.22,0.382 3.036,1.063c0.846,0.686 1.255,1.81 1.227,3.372c-0.028,1.563 -0.477,2.66 -1.346,3.29c-0.837,0.628 -1.859,0.916 -3.065,0.866l-0.524,-0.022l0.148,-8.581Zm-124.902,-2.263c0.923,0.023 1.782,0.2 2.582,0.533c0.83,0.335 1.55,0.782 2.161,1.343c0.61,0.562 1.095,1.222 1.453,1.98c0.358,0.731 0.54,1.515 0.55,2.349c0.01,0.834 -0.156,1.616 -0.496,2.346c-0.34,0.7 -0.809,1.305 -1.405,1.817c-0.596,0.509 -1.304,0.895 -2.124,1.16c-0.788,0.264 -1.641,0.369 -2.56,0.313c-0.919,-0.055 -1.792,-0.262 -2.621,-0.619c-0.797,-0.354 -1.5,-0.812 -2.111,-1.375c-0.61,-0.56 -1.095,-1.195 -1.454,-1.905c-0.361,-0.736 -0.547,-1.503 -0.56,-2.305c-0.013,-0.801 0.15,-1.541 0.488,-2.22c0.339,-0.707 0.805,-1.316 1.401,-1.825c0.596,-0.51 1.289,-0.909 2.079,-1.195c0.823,-0.287 1.695,-0.42 2.617,-0.397Z" style="fill:#a11d20;fill-rule:nonzero;"/><path id="Foghorn-Outline" serif:id="Foghorn Outline" d="M193.33,70.397l-41.656,-3.469l0.633,-33.815l12.412,-7.875l0.588,0c2.308,0.001 4.427,0.385 6.353,1.137c2.027,0.784 3.767,1.942 5.226,3.477c0.895,0.947 2.59,2.035 3.223,3.258l0.158,-7.868l11.571,0.004l5.367,10.186l0.233,-10.185l14.043,0.003l-1.136,46.596l-11.61,-0.989l-5.192,-10.247l-0.213,9.787Zm-11.08,-43.131l-0.805,40.088l9.909,0.844l0.341,-15.709l8.335,16.448l8.345,0.711l1.033,-42.375l-9.993,-0.002l-0.366,16.002l-8.432,-16.005l-8.367,-0.002Zm-27.94,6.973l-0.578,30.833l10.1,0.86l0.167,-9.798l4.574,10.202l11.851,1.01l-5.677,-13.559c0.806,-0.668 1.536,-1.502 2.19,-2.501c0.557,-0.887 1.072,-2.018 1.544,-3.393c0.472,-1.377 0.727,-3.064 0.766,-5.06c0.05,-2.515 -0.271,-4.738 -0.965,-6.667c-0.663,-1.962 -1.618,-3.604 -2.866,-4.924c-1.25,-1.314 -2.745,-2.307 -4.486,-2.98c-1.709,-0.667 -3.583,-1 -5.623,-1.001l-10.997,6.978Zm-80.508,-9.768c1.999,-0.035 3.884,0.19 5.162,0.579c1.446,0.439 2.688,0.835 3.668,1.324c1.231,0.599 2.252,1.263 3.072,1.978l1.385,1.207l-6.388,8.945l8.456,0.302l0.019,-13.587l14.237,0.003l-0.045,11.41l1.63,0.047l0.06,-11.457l14.284,0.005l-0.298,38.922l-14.186,-1.208l0.066,-12.47l-1.611,-0.086l-0.049,12.42l-14.14,-1.204l0.01,-6.688c-0.433,0.548 -0.898,1.072 -1.398,1.575c-1.151,1.117 -2.445,2.053 -3.867,2.8c-1.406,0.754 -2.937,1.297 -4.599,1.624c-1.634,0.319 -3.322,0.402 -5.065,0.25c-2.528,-0.221 -4.918,-0.89 -7.163,-1.997c-2.236,-1.092 -4.195,-2.486 -5.886,-4.186c-1.662,-1.687 -2.995,-3.62 -4.004,-5.823c-0.096,-0.214 -0.187,-0.43 -0.272,-0.647c-0.053,0.12 -0.107,0.24 -0.164,0.358c-0.962,2.103 -2.309,3.897 -4.043,5.388c-1.672,1.424 -3.647,2.504 -5.965,3.24c-2.251,0.672 -4.646,0.9 -7.189,0.678c-2.506,-0.219 -4.88,-0.841 -7.135,-1.861c-2.23,-1.029 -4.188,-2.312 -5.898,-3.862c-1.684,-1.572 -3.038,-3.35 -4.073,-5.353c-0.195,-0.389 -0.373,-0.78 -0.532,-1.175l-9.067,-0.432l-0.089,11.411l-12.486,-1.389l-0.239,-30.314l22.813,0.005l0.154,7.752c0.872,-1.388 1.947,-2.626 3.223,-3.713c1.684,-1.448 3.658,-2.591 5.895,-3.405c2.254,-0.862 4.655,-1.302 7.205,-1.306c2.558,-0.004 4.977,0.44 7.245,1.329c2.301,0.881 4.299,2.118 5.973,3.683c1.745,1.58 3.113,3.448 4.095,5.585c0.084,0.178 0.165,0.357 0.242,0.538l0.158,-0.381c0.92,-2.139 2.187,-3.994 3.793,-5.564c1.639,-1.615 3.567,-2.885 5.766,-3.795c2.251,-0.961 4.664,-1.411 7.24,-1.455Zm17.395,2.772l-0.047,32.5l10.099,0.86l0.05,-12.352l5.659,0.303l-0.067,12.53l10.147,0.864l0.265,-34.698l-10.232,-0.004l-0.061,11.516l-5.673,-0.165l0.044,-11.352l-10.184,-0.002Zm-17.391,-0.749c-2.296,0.003 -4.445,0.437 -6.449,1.293c-1.972,0.816 -3.686,1.942 -5.142,3.375c-1.423,1.392 -2.541,3.032 -3.353,4.922c-0.813,1.882 -1.21,3.889 -1.193,6.027c0.017,2.197 0.461,4.268 1.331,6.222c0.901,1.965 2.1,3.707 3.597,5.227c1.527,1.534 3.305,2.797 5.332,3.787c2.027,0.999 4.177,1.601 6.453,1.8c1.548,0.135 3.048,0.063 4.501,-0.221c1.454,-0.286 2.797,-0.759 4.029,-1.421c1.265,-0.664 2.403,-1.487 3.415,-2.469c1.014,-1.02 1.885,-2.168 2.615,-3.445l0.01,-10.768l-12.244,-0.437l0.015,6.573l2.853,0.153c-0.633,0.753 -1.392,1.339 -2.278,1.758c-0.887,0.386 -1.868,0.546 -2.945,0.481c-0.92,-0.056 -1.791,-0.263 -2.617,-0.621c-0.793,-0.386 -1.492,-0.873 -2.097,-1.459c-0.605,-0.616 -1.083,-1.33 -1.436,-2.144c-0.352,-0.811 -0.532,-1.674 -0.536,-2.591c-0.004,-0.915 0.151,-1.765 0.464,-2.548c0.314,-0.784 0.74,-1.444 1.278,-1.979c0.569,-0.567 1.235,-0.995 1.997,-1.283c0.762,-0.32 1.604,-0.469 2.526,-0.446c0.826,0.02 1.67,0.182 2.529,0.485c0.859,0.273 1.574,0.668 2.148,1.188l5.766,-8.075c-0.701,-0.611 -1.576,-1.173 -2.628,-1.685c-0.893,-0.446 -1.994,-0.841 -3.301,-1.188c-1.308,-0.344 -2.855,-0.514 -4.641,-0.511l0.001,-0Zm105.922,24.822c-0.057,0.096 -0.061,-0.483 -1.098,1.078c-0.465,0.7 -0.953,1.335 -1.479,1.897l2.459,5.976l0.118,-8.951Zm-140.434,-24.762c-2.296,0.003 -4.458,0.397 -6.486,1.173c-2.027,0.738 -3.794,1.755 -5.299,3.05c-1.474,1.255 -2.64,2.733 -3.498,4.437c-0.825,1.695 -1.218,3.504 -1.181,5.432c0.038,1.929 0.501,3.774 1.39,5.542c0.92,1.779 2.136,3.372 3.647,4.782c1.541,1.397 3.329,2.566 5.365,3.505c2.034,0.92 4.189,1.484 6.464,1.683c2.275,0.198 4.419,0 6.433,-0.601c2.014,-0.64 3.758,-1.586 5.231,-2.842c1.506,-1.294 2.678,-2.858 3.517,-4.69c0.871,-1.839 1.3,-3.828 1.282,-5.959c-0.018,-2.131 -0.479,-4.159 -1.385,-6.073c-0.875,-1.905 -2.083,-3.555 -3.624,-4.95c-1.511,-1.412 -3.29,-2.509 -5.339,-3.294c-2.049,-0.803 -4.222,-1.199 -6.517,-1.195Zm-37.255,0.667l0.208,26.441l8.728,0.67l0.071,-10.579l9.971,0.097l-0.132,-6.649l-10.288,-0.268l-0.067,-2.885l10.439,0.192l-0.14,-7.014l-18.79,-0.005Zm72.641,11.161c-0.268,-0.047 -0.534,-0.073 -0.798,-0.08c-0.617,-0.015 -1.182,0.075 -1.726,0.304l-0.035,0.013c-0.49,0.185 -0.919,0.459 -1.285,0.823c-0.351,0.35 -0.621,0.786 -0.827,1.299c-0.219,0.548 -0.322,1.145 -0.319,1.785c0.003,0.635 0.125,1.233 0.369,1.796c0.252,0.581 0.592,1.091 0.989,1.497c0.443,0.429 0.954,0.786 1.532,1.07c0.598,0.256 1.23,0.402 1.895,0.442c0.076,0.005 0.151,0.008 0.226,0.009l-0.021,-8.958Zm-35.266,-2.947c0.923,0.023 1.782,0.2 2.582,0.533c0.83,0.335 1.55,0.782 2.161,1.343c0.61,0.562 1.095,1.222 1.453,1.98c0.358,0.731 0.54,1.515 0.55,2.349c0.01,0.834 -0.156,1.616 -0.496,2.346c-0.34,0.7 -0.809,1.305 -1.405,1.817c-0.596,0.509 -1.304,0.895 -2.124,1.16c-0.788,0.264 -1.641,0.369 -2.56,0.313c-0.919,-0.055 -1.792,-0.262 -2.621,-0.619c-0.797,-0.354 -1.5,-0.812 -2.111,-1.375c-0.61,-0.56 -1.095,-1.195 -1.454,-1.905c-0.361,-0.736 -0.547,-1.503 -0.56,-2.305c-0.013,-0.801 0.15,-1.541 0.488,-2.22c0.339,-0.707 0.805,-1.316 1.401,-1.825c0.596,-0.51 1.289,-0.909 2.079,-1.195c0.823,-0.287 1.695,-0.42 2.617,-0.397Zm124.902,2.263l0.524,0.012c1.208,0.028 2.22,0.382 3.036,1.063c0.846,0.686 1.255,1.81 1.227,3.372c-0.028,1.563 -0.477,2.66 -1.346,3.29c-0.837,0.628 -1.859,0.916 -3.065,0.866l-0.524,-0.022l0.148,-8.581Zm-124.951,-0.24c-0.67,-0.017 -1.304,0.076 -1.878,0.276c-0.551,0.199 -1.037,0.473 -1.454,0.831c-0.379,0.324 -0.675,0.71 -0.898,1.175l-0.007,0.014c-0.196,0.393 -0.284,0.823 -0.276,1.285c0.008,0.504 0.127,0.986 0.341,1.424c0.252,0.496 0.592,0.938 1.022,1.332c0.451,0.416 0.972,0.751 1.54,1.004c0.613,0.264 1.261,0.417 1.942,0.458c0.644,0.039 1.242,-0.027 1.817,-0.22c0.551,-0.177 1.03,-0.43 1.427,-0.77c0.383,-0.328 0.685,-0.717 0.889,-1.135c0.213,-0.457 0.313,-0.947 0.307,-1.47c-0.006,-0.526 -0.119,-1.02 -0.356,-1.506c-0.246,-0.52 -0.578,-0.973 -0.992,-1.355c-0.437,-0.401 -0.956,-0.717 -1.57,-0.965c-0.574,-0.239 -1.192,-0.362 -1.854,-0.378Zm126.932,2.666l-0.066,3.883c0.117,-0.059 0.23,-0.129 0.34,-0.211c0.431,-0.312 0.495,-0.913 0.509,-1.688c0.015,-0.795 -0.047,-1.414 -0.502,-1.783c-0.089,-0.074 -0.183,-0.141 -0.281,-0.201Z"/></g><g><path id="Unscripted" d="M59.915,59.292c-1.223,-0.096 -2.38,0.017 -3.47,0.344c-1.064,0.3 -1.994,0.804 -2.792,1.511c-0.797,0.711 -1.422,1.628 -1.874,2.753c-0.453,1.128 -0.679,2.448 -0.679,3.96c0,1.352 0.186,2.568 0.558,3.648c0.372,1.045 0.838,1.997 1.396,2.854c0.585,0.856 1.197,1.616 1.835,2.278c0.665,0.662 1.277,1.273 1.835,1.831c0.585,0.527 1.063,1.017 1.435,1.472c0.373,0.422 0.559,0.837 0.559,1.248c0,1.075 -0.611,1.598 -1.834,1.57c-0.692,-0.016 -1.384,-0.079 -2.075,-0.191c-0.665,-0.111 -1.262,-0.253 -1.794,-0.426c-0.638,-0.143 -1.25,-0.335 -1.835,-0.575l0,9.651c0.638,0.227 1.343,0.421 2.114,0.582c0.665,0.161 1.422,0.29 2.273,0.385c0.877,0.128 1.822,0.191 2.833,0.191c1.675,0 3.124,-0.266 4.347,-0.798c1.223,-0.497 2.219,-1.178 2.991,-2.044c0.798,-0.894 1.382,-1.927 1.754,-3.098c0.373,-1.2 0.559,-2.48 0.559,-3.839c0,-1.298 -0.186,-2.477 -0.559,-3.54c-0.345,-1.064 -0.784,-2.025 -1.315,-2.883c-0.506,-0.859 -1.078,-1.63 -1.716,-2.312c-0.611,-0.683 -1.182,-1.287 -1.714,-1.813c-0.505,-0.526 -0.944,-0.987 -1.316,-1.383c-0.346,-0.395 -0.519,-0.719 -0.519,-0.971c0,-0.283 0.08,-0.498 0.239,-0.647c0.16,-0.148 0.346,-0.247 0.559,-0.298c0.212,-0.05 0.438,-0.068 0.677,-0.055c0.24,-0.017 0.439,-0.022 0.599,-0.013c0.292,0.017 0.572,0.049 0.838,0.095c0.266,0.047 0.505,0.091 0.717,0.134c0.266,0.046 0.506,0.091 0.718,0.134l0,-8.726c-0.558,-0.136 -1.13,-0.274 -1.715,-0.414c-0.505,-0.102 -1.077,-0.209 -1.715,-0.322c-0.638,-0.145 -1.276,-0.242 -1.914,-0.293Zm23.423,1.747c-1.915,-0.151 -3.722,0.082 -5.424,0.705c-1.702,0.599 -3.191,1.556 -4.467,2.871c-1.277,1.325 -2.287,2.966 -3.032,4.924c-0.744,1.934 -1.117,4.141 -1.117,6.613c-0,2.411 0.359,4.631 1.077,6.655c0.718,1.986 1.715,3.692 2.992,5.119c1.276,1.417 2.792,2.523 4.547,3.318c1.754,0.758 3.669,1.134 5.743,1.134c1.542,0 2.912,-0.177 4.108,-0.531c1.197,-0.351 2.22,-0.731 3.071,-1.138c0.984,-0.492 1.835,-1.055 2.553,-1.69l-4.188,-8.197c-0.399,0.43 -0.864,0.799 -1.396,1.109c-0.452,0.284 -1.01,0.536 -1.675,0.756c-0.665,0.221 -1.422,0.322 -2.274,0.302c-0.85,-0.021 -1.635,-0.204 -2.353,-0.551c-0.718,-0.348 -1.343,-0.816 -1.874,-1.403c-0.532,-0.588 -0.958,-1.264 -1.277,-2.03c-0.292,-0.796 -0.438,-1.634 -0.438,-2.512c-0,-0.877 0.146,-1.688 0.438,-2.431c0.293,-0.772 0.692,-1.431 1.197,-1.978c0.532,-0.545 1.143,-0.964 1.834,-1.257c0.692,-0.292 1.45,-0.415 2.274,-0.369c0.798,0.045 1.502,0.202 2.114,0.474c0.637,0.242 1.183,0.493 1.635,0.753c0.505,0.351 0.97,0.715 1.396,1.089l4.188,-7.87c-0.718,-0.605 -1.569,-1.178 -2.553,-1.72c-0.851,-0.475 -1.874,-0.921 -3.071,-1.338c-1.17,-0.417 -2.513,-0.687 -4.028,-0.807Zm-81.091,-5.384l0,22.764c0,2.362 0.253,4.426 0.758,6.187c0.532,1.758 1.277,3.21 2.234,4.357c0.957,1.143 2.114,1.999 3.47,2.568c1.356,0.565 2.872,0.847 4.547,0.847c1.675,0 3.191,-0.278 4.547,-0.831c1.356,-0.55 2.512,-1.373 3.47,-2.468c0.984,-1.09 1.728,-2.468 2.233,-4.136c0.532,-1.665 0.798,-3.623 0.798,-5.875l0,-21.706l-8.536,-0.66l0,21.646c0,1.217 -0.199,2.151 -0.598,2.802c-0.373,0.618 -1.01,0.917 -1.914,0.898c-0.904,-0.021 -1.555,-0.351 -1.955,-0.993c-0.372,-0.676 -0.558,-1.63 -0.558,-2.861l0,-21.881l-8.496,-0.658Zm23.961,1.782l0.051,34.075l8.335,0.016l-0,-12.807l7.299,12.821l7.02,0.013l0,-32.289l-8.336,-0.645l-0,12.684l-7.339,-13.251l-7.03,-0.617Zm68.371,5.117l0,29.083l8.495,0.016l0,-7.206l3.989,7.214l9.971,0.019l-4.986,-9.167c0.665,-0.481 1.264,-1.072 1.796,-1.774c0.452,-0.62 0.863,-1.406 1.236,-2.356c0.372,-0.948 0.558,-2.108 0.558,-3.482c-0,-1.731 -0.305,-3.274 -0.917,-4.631c-0.585,-1.387 -1.41,-2.574 -2.473,-3.561c-1.063,-0.992 -2.327,-1.781 -3.789,-2.366c-1.436,-0.586 -3.004,-0.948 -4.706,-1.079l-9.174,-0.71Zm22.535,1.744l0,27.383l9.014,0.017l0,-26.703l-9.014,-0.697Zm11.088,0.858l-0,26.546l8.495,0.016l-0,-6.176c1.701,0.035 3.284,-0.113 4.746,-0.441c1.489,-0.324 2.779,-0.852 3.869,-1.583c1.117,-0.724 1.994,-1.678 2.633,-2.86c0.638,-1.202 0.957,-2.663 0.957,-4.386c-0,-1.723 -0.319,-3.202 -0.957,-4.442c-0.639,-1.269 -1.516,-2.32 -2.633,-3.153c-1.09,-0.837 -2.38,-1.491 -3.869,-1.959c-1.462,-0.47 -3.045,-0.773 -4.746,-0.905l-8.495,-0.657Zm20.58,1.593l0,6.557l4.906,0.283l0,18.162l8.775,0.017l-0,-17.674l4.905,0.283l0,-6.19l-18.586,-1.438Zm20.631,1.49l0,23.539l15.954,0.031l0,-5.86l-7.458,-0.162l-0,-2.643l7.059,0.215l0,-5.567l-7.059,-0.347l-0,-2.54l7.179,0.413l0,-5.865l-15.675,-1.214Zm17.81,1.314l-0.181,22.26l7.379,0.013c2.5,0.006 4.719,-0.214 6.66,-0.653c1.968,-0.453 3.617,-1.111 4.947,-1.971c1.356,-0.853 2.379,-1.908 3.071,-3.169c0.717,-1.273 1.076,-2.746 1.076,-4.423c0,-1.677 -0.359,-3.168 -1.076,-4.478c-0.692,-1.336 -1.715,-2.483 -3.071,-3.443c-1.33,-0.966 -2.979,-1.744 -4.947,-2.333c-1.941,-0.592 -4.16,-0.988 -6.66,-1.181l-7.198,-0.622Zm-84.149,1.334l0.44,0.026c1.01,0.057 1.861,0.345 2.552,0.864c0.718,0.518 1.077,1.339 1.077,2.464c-0,1.125 -0.359,1.91 -1.077,2.358c-0.691,0.451 -1.542,0.657 -2.552,0.617l-0.44,-0.018l0,-6.311Zm33.623,1.918l0.36,0.02c1.116,0.064 1.914,0.366 2.393,0.907c0.505,0.515 0.757,1.22 0.757,2.117c0,0.897 -0.252,1.591 -0.757,2.082c-0.479,0.468 -1.277,0.68 -2.393,0.636l-0.36,-0.015l-0,-5.747Zm58.84,3.6c1.995,0.111 3.537,0.57 4.628,1.372c1.09,0.796 1.634,1.961 1.634,3.5c0,1.54 -0.544,2.672 -1.634,3.403c-1.091,0.715 -2.633,1.052 -4.628,1.005l0,-9.28Z" style="fill:#e7a344;fill-rule:nonzero;"/><path id="Unscripted-Outline" serif:id="Unscripted Outline" d="M24.251,88.327c-0.429,0.772 -0.921,1.463 -1.47,2.071c-1.166,1.333 -2.574,2.336 -4.222,3.004c-1.582,0.645 -3.349,0.979 -5.303,0.979c-1.96,0 -3.731,-0.34 -5.322,-1.003c-1.653,-0.694 -3.064,-1.736 -4.233,-3.132c-1.114,-1.334 -1.994,-3.015 -2.622,-5.088c-0.55,-1.919 -0.835,-4.166 -0.835,-6.739l0,-24.928l12.503,0.968l-0,23.735c-0,0.768 0.058,1.382 0.272,1.823c0.06,0.061 0.168,0.025 0.281,0.028c0.061,0.001 0.146,-0.007 0.203,-0.015c0.213,-0.402 0.262,-0.97 0.262,-1.682l0,-23.81l10.437,0.807l10.272,0.806l4.1,7.403l-0,-7.097l12.342,0.955l0,3.851c0.41,-0.608 0.881,-1.145 1.408,-1.614c1.023,-0.908 2.215,-1.557 3.545,-1.931c1.321,-0.397 2.722,-0.54 4.204,-0.423c0.716,0.057 1.431,0.165 2.146,0.325c0.64,0.113 1.215,0.221 1.757,0.331l0.034,0.008c0.588,0.14 1.164,0.279 1.725,0.416l1.528,0.374l-0,12.747l-2.401,-0.485c-0.122,-0.025 -0.253,-0.05 -0.401,-0.077c0.469,0.475 0.962,1.001 1.463,1.561c0.521,0.557 1.004,1.165 1.439,1.81c0.149,-2.005 0.546,-3.833 1.18,-5.479c0.848,-2.229 2.008,-4.093 3.466,-5.605c1.497,-1.543 3.244,-2.664 5.216,-3.358c1.968,-0.721 4.057,-0.996 6.271,-0.821l0,0c1.71,0.136 3.223,0.446 4.53,0.912c1.32,0.461 2.448,0.956 3.378,1.475c0.411,0.227 1.172,-1.039 1.172,-1.039l11.331,0.877c1.92,0.148 3.689,0.56 5.296,1.216c1.704,0.682 3.173,1.605 4.408,2.758c0.554,0.514 1.055,1.074 1.5,1.676l-0,-4.783l13.02,1.007l0,0l8.72,0.675c1.866,0.144 3.601,0.479 5.194,0.991c1.728,0.544 3.222,1.309 4.466,2.265c0.091,0.067 0.18,0.136 0.268,0.207l0,-2.695l20.631,1.491c-0,0 27.183,2.104 27.166,2.102c2.661,0.206 5.024,0.632 7.08,1.26c2.21,0.661 4.056,1.546 5.529,2.617c1.634,1.157 2.859,2.547 3.67,4.116c0.873,1.592 1.323,3.401 1.323,5.44c0,2.052 -0.456,3.849 -1.323,5.387c-0.85,1.548 -2.096,2.854 -3.739,3.886c-1.502,0.973 -3.361,1.73 -5.593,2.244c-2.071,0.468 -4.439,0.708 -7.106,0.703l-27.007,-0.052l-0,-17.393l-2.944,-0.169l0,17.559l-12.781,-0.025l-0,-18.27l-0.804,-0.046c0.016,0.274 0.024,0.553 0.024,0.838c0,2.094 -0.415,3.864 -1.198,5.338c-0.801,1.483 -1.903,2.679 -3.279,3.572c-1.286,0.862 -2.803,1.494 -4.547,1.874c-1.009,0.226 -2.069,0.375 -3.181,0.446l-0,6.223l-32.82,-0.063l-0.803,-1.452l0,1.45l-12.501,-0.023l-0,-1.592c-0.28,0.162 -0.571,0.319 -0.875,0.471c-0.935,0.447 -2.058,0.868 -3.368,1.252c-1.362,0.403 -2.92,0.613 -4.676,0.613c-2.362,0 -4.54,-0.435 -6.57,-1.313c-2.011,-0.91 -3.747,-2.178 -5.213,-3.807c-0.846,-0.945 -1.585,-1.997 -2.215,-3.162c-0.075,0.319 -0.161,0.634 -0.258,0.946c-0.459,1.446 -1.183,2.72 -2.167,3.823c-0.965,1.083 -2.203,1.946 -3.689,2.55c-1.449,0.629 -3.161,0.963 -5.145,0.963c-1.099,0 -2.126,-0.069 -3.082,-0.206c-0.919,-0.104 -1.738,-0.245 -2.461,-0.418c-0.695,-0.146 -1.941,-0.195 -1.941,-0.195l-10.189,-0.019l-4.13,-7.255l-0,7.247l-12.339,-0.024l-0.007,-5.184Zm-22.004,-32.672l0,22.764c0,2.362 0.253,4.426 0.758,6.187c0.532,1.758 1.277,3.21 2.234,4.357c0.957,1.143 2.114,1.999 3.47,2.568c1.356,0.565 2.872,0.847 4.547,0.847c1.675,0 3.191,-0.278 4.547,-0.831c1.356,-0.55 2.512,-1.373 3.47,-2.468c0.984,-1.09 1.728,-2.468 2.233,-4.136c0.532,-1.665 0.798,-3.623 0.798,-5.875l0,-21.706l-8.536,-0.66l0,21.646c0,1.217 -0.199,2.151 -0.598,2.802c-0.373,0.618 -1.01,0.917 -1.914,0.898c-0.904,-0.021 -1.555,-0.351 -1.955,-0.993c-0.372,-0.676 -0.558,-1.63 -0.558,-2.861l0,-21.881l-8.496,-0.658Zm81.091,5.384c-1.915,-0.151 -3.722,0.082 -5.424,0.705c-1.702,0.599 -3.191,1.556 -4.467,2.871c-1.277,1.325 -2.287,2.966 -3.032,4.924c-0.744,1.934 -1.117,4.141 -1.117,6.613c-0,2.411 0.359,4.631 1.077,6.655c0.718,1.986 1.715,3.692 2.992,5.119c1.276,1.417 2.792,2.523 4.547,3.318c1.754,0.758 3.669,1.134 5.743,1.134c1.542,0 2.912,-0.177 4.108,-0.531c1.197,-0.351 2.22,-0.731 3.071,-1.138c0.984,-0.492 1.835,-1.055 2.553,-1.69l-4.188,-8.197c-0.399,0.43 -0.864,0.799 -1.396,1.109c-0.452,0.284 -1.01,0.536 -1.675,0.756c-0.665,0.221 -1.422,0.322 -2.274,0.302c-0.85,-0.021 -1.635,-0.204 -2.353,-0.551c-0.718,-0.348 -1.343,-0.816 -1.874,-1.403c-0.532,-0.588 -0.958,-1.264 -1.277,-2.03c-0.292,-0.796 -0.438,-1.634 -0.438,-2.512c-0,-0.877 0.146,-1.688 0.438,-2.431c0.293,-0.772 0.692,-1.431 1.197,-1.978c0.532,-0.545 1.143,-0.964 1.834,-1.257c0.692,-0.292 1.45,-0.415 2.274,-0.369c0.798,0.045 1.502,0.202 2.114,0.474c0.637,0.242 1.183,0.493 1.635,0.753c0.505,0.351 0.97,0.715 1.396,1.089l4.188,-7.87c-0.718,-0.605 -1.569,-1.178 -2.553,-1.72c-0.851,-0.475 -1.874,-0.921 -3.071,-1.338c-1.17,-0.417 -2.513,-0.687 -4.028,-0.807Zm-23.423,-1.747c-1.223,-0.096 -2.38,0.017 -3.47,0.344c-1.064,0.3 -1.994,0.804 -2.792,1.511c-0.797,0.711 -1.422,1.628 -1.874,2.753c-0.453,1.128 -0.679,2.448 -0.679,3.96c0,1.352 0.186,2.568 0.558,3.648c0.372,1.045 0.838,1.997 1.396,2.854c0.585,0.856 1.197,1.616 1.835,2.278c0.665,0.662 1.277,1.273 1.835,1.831c0.585,0.527 1.063,1.017 1.435,1.472c0.373,0.422 0.559,0.837 0.559,1.248c0,1.075 -0.611,1.598 -1.834,1.57c-0.692,-0.016 -1.384,-0.079 -2.075,-0.191c-0.665,-0.111 -1.262,-0.253 -1.794,-0.426c-0.638,-0.143 -1.25,-0.335 -1.835,-0.575l0,9.651c0.638,0.227 1.343,0.421 2.114,0.582c0.665,0.161 1.422,0.29 2.273,0.385c0.877,0.128 1.822,0.191 2.833,0.191c1.675,0 3.124,-0.266 4.347,-0.798c1.223,-0.497 2.219,-1.178 2.991,-2.044c0.798,-0.894 1.382,-1.927 1.754,-3.098c0.373,-1.2 0.559,-2.48 0.559,-3.839c0,-1.298 -0.186,-2.477 -0.559,-3.54c-0.345,-1.064 -0.784,-2.025 -1.315,-2.883c-0.506,-0.859 -1.078,-1.63 -1.716,-2.312c-0.611,-0.683 -1.182,-1.287 -1.714,-1.813c-0.505,-0.526 -0.944,-0.987 -1.316,-1.383c-0.346,-0.395 -0.519,-0.719 -0.519,-0.971c0,-0.283 0.08,-0.498 0.239,-0.647c0.16,-0.148 0.346,-0.247 0.559,-0.298c0.212,-0.05 0.438,-0.068 0.677,-0.055c0.24,-0.017 0.439,-0.022 0.599,-0.013c0.292,0.017 0.572,0.049 0.838,0.095c0.266,0.047 0.505,0.091 0.717,0.134c0.266,0.046 0.506,0.091 0.718,0.134l0,-8.726c-0.558,-0.136 -1.13,-0.274 -1.715,-0.414c-0.505,-0.102 -1.077,-0.209 -1.715,-0.322c-0.638,-0.145 -1.276,-0.242 -1.914,-0.293Zm127.308,10.261l-0.181,22.26l7.379,0.013c2.5,0.006 4.719,-0.214 6.66,-0.653c1.968,-0.453 3.617,-1.111 4.947,-1.971c1.356,-0.853 2.379,-1.908 3.071,-3.169c0.717,-1.273 1.076,-2.746 1.076,-4.423c0,-1.677 -0.359,-3.168 -1.076,-4.478c-0.692,-1.336 -1.715,-2.483 -3.071,-3.443c-1.33,-0.966 -2.979,-1.744 -4.947,-2.333c-1.941,-0.592 -4.16,-0.988 -6.66,-1.181l-7.198,-0.622Zm-17.81,-1.314l0,23.539l15.954,0.031l0,-5.86l-7.458,-0.162l-0,-2.643l7.059,0.215l0,-5.567l-7.059,-0.347l-0,-2.54l7.179,0.413l0,-5.865l-15.675,-1.214Zm-19.705,-1.49l0,6.557l3.98,0.283l0,18.162l8.775,0.017l-0,-17.674l4.905,0.283l0,-6.19l-17.66,-1.438Zm-21.506,-1.593l-0,26.546l8.495,0.016l-0,-6.176c1.701,0.035 3.284,-0.113 4.746,-0.441c1.489,-0.324 2.779,-0.852 3.869,-1.583c1.117,-0.724 1.994,-1.678 2.633,-2.86c0.638,-1.202 0.957,-2.663 0.957,-4.386c-0,-1.723 -0.319,-3.202 -0.957,-4.442c-0.639,-1.269 -1.516,-2.32 -2.633,-3.153c-1.09,-0.837 -2.38,-1.491 -3.869,-1.959c-1.462,-0.47 -3.045,-0.773 -4.746,-0.905l-8.495,-0.657Zm-11.088,-0.858l0,27.383l9.014,0.017l0,-26.703l-9.014,-0.697Zm-22.535,-1.744l0,29.083l8.495,0.016l0,-7.206l3.989,7.214l9.971,0.019l-4.986,-9.167c0.665,-0.481 1.264,-1.072 1.796,-1.774c0.452,-0.62 0.863,-1.406 1.236,-2.356c0.372,-0.948 0.558,-2.108 0.558,-3.482c-0,-1.731 -0.305,-3.274 -0.917,-4.631c-0.585,-1.387 -1.41,-2.574 -2.473,-3.561c-1.063,-0.992 -2.327,-1.781 -3.789,-2.366c-1.436,-0.586 -3.004,-0.948 -4.706,-1.079l-9.174,-0.71Zm-68.371,-5.117l0.051,34.075l8.335,0.016l-0,-12.807l7.299,12.821l7.02,0.013l0,-32.289l-8.336,-0.645l-0,12.684l-7.339,-13.251l-7.03,-0.617Zm169.329,18.968c1.995,0.111 3.537,0.57 4.628,1.372c1.09,0.796 1.634,1.961 1.634,3.5c0,1.54 -0.544,2.672 -1.634,3.403c-1.091,0.715 -2.633,1.052 -4.628,1.005l0,-9.28Zm-80.426,5.958c-0.174,0.208 -0.353,0.408 -0.538,0.599l0.538,0.989l-0,-1.588Zm82.43,-3.64l-0,4.842c0.595,-0.104 1.1,-0.281 1.508,-0.549c0.547,-0.366 0.747,-0.967 0.747,-1.739c0,-0.817 -0.234,-1.46 -0.818,-1.886c-0.398,-0.293 -0.878,-0.511 -1.437,-0.668Zm-104.965,-8.777l-3.197,6.007l-1.901,-1.675c-0.351,-0.309 -0.733,-0.609 -1.146,-0.898c-0.357,-0.2 -0.782,-0.389 -1.272,-0.575l-0.102,-0.042c-0.408,-0.181 -0.88,-0.275 -1.412,-0.305c-0.501,-0.028 -0.963,0.037 -1.381,0.213c-0.437,0.186 -0.824,0.45 -1.162,0.791c-0.33,0.363 -0.585,0.802 -0.787,1.334c-0.204,0.518 -0.299,1.085 -0.299,1.697c-0,0.622 0.099,1.217 0.302,1.782c0.226,0.533 0.524,1.006 0.894,1.415c0.359,0.396 0.78,0.711 1.262,0.945c0.466,0.225 0.977,0.338 1.529,0.351c0.596,0.014 1.128,-0.045 1.596,-0.2c0.491,-0.163 0.907,-0.343 1.268,-0.569l0.028,-0.016c0.356,-0.208 0.669,-0.453 0.936,-0.741l1.949,-2.101l2.895,5.666l-0,-13.079Zm-41.66,4.754l0,4.596l1.024,0.42c0.483,0.198 0.988,0.356 1.514,0.474l0.091,0.02l0.089,0.029c0.446,0.145 0.948,0.263 1.494,0.354c0.347,0.056 0.695,0.098 1.042,0.126c-0.231,-0.243 -0.493,-0.495 -0.786,-0.759l-0.077,-0.073c-0.557,-0.557 -1.168,-1.167 -1.846,-1.842l-0.015,-0.015c-0.711,-0.739 -1.394,-1.584 -2.058,-2.556l-0.013,-0.019c-0.159,-0.245 -0.312,-0.497 -0.459,-0.755Zm85.781,-1.895l0.36,0.02c1.116,0.064 1.914,0.366 2.393,0.907c0.505,0.515 0.757,1.22 0.757,2.117c0,0.897 -0.252,1.591 -0.757,2.082c-0.479,0.468 -1.277,0.68 -2.393,0.636l-0.36,-0.015l-0,-5.747Zm-33.623,-1.918l0.44,0.026c1.01,0.057 1.861,0.345 2.552,0.864c0.718,0.518 1.077,1.339 1.077,2.464c-0,1.125 -0.359,1.91 -1.077,2.358c-0.691,0.451 -1.542,0.657 -2.552,0.617l-0.44,-0.018l0,-6.311Zm2.003,2.775l0,1.172c0.099,-0.132 0.063,-0.348 0.063,-0.593c-0,-0.22 -0.005,-0.418 -0.063,-0.579Z"/></g><g id="Horn"><path d="M147.607,32.072l10.407,-5.522l9.117,-9.889l2.782,-6.436l-0.824,-7.68l0.179,-1.725l23.091,36.754l-1.326,1.979l-2.786,-3.152l-6.903,-3.08l-9.095,0.055l-7.536,1.835l-5.887,2.753l-2.864,1.198l-0.276,1.465l-4.367,1.292l-5.947,-8.709l2.235,-1.138Z" style="fill:#e7a344;"/><path d="M146.54,31.4c-0.021,-0.111 0.006,-0.147 0.09,-0.095l2.435,-1.362c0.469,-0.262 1.021,-0.311 1.522,-0.151c0.102,0.032 0.202,0.074 0.298,0.123c12.384,-7.328 19.637,-17.293 17.829,-24.578l-0.86,-1.467c-0.906,-1.566 -0.346,-2.981 0.676,-3.569c0.013,-0.007 0.026,-0.015 0.039,-0.022c0.558,-0.304 1.212,-0.362 1.84,-0.162c0.668,0.212 1.265,0.713 1.688,1.423l20.362,34.731c0.81,1.382 0.516,2.935 -0.701,3.623c-0.565,0.31 -1.22,0.372 -1.847,0.173c-0.461,-0.147 -1.121,-0.51 -1.659,-1.415l-0.855,-1.459c-1.166,-1.105 -2.643,-1.946 -4.393,-2.504c-6.481,-2.06 -16.488,-0.115 -26.329,5.077c-0.033,0.626 -0.385,1.197 -0.944,1.511l-2.151,1.206c0.019,0.194 -0.047,0.229 -0.18,0.135c0.293,1.637 0.365,3.341 0.186,5.076c-1.031,9.96 -9.954,17.211 -19.915,16.18c-9.961,-1.031 -17.211,-9.954 -16.18,-19.915c1.03,-9.96 9.954,-17.21 19.914,-16.18c3.447,0.357 6.569,1.658 9.135,3.621Zm44.274,6.857c-0.06,0.034 -0.126,0.045 -0.194,0.046c-0.02,-0 -0.04,-0.005 -0.061,-0.008c-0.027,-0.003 -0.053,-0.001 -0.081,-0.009c-0.029,-0.009 -0.058,-0.027 -0.087,-0.042c-0.012,-0.006 -0.024,-0.01 -0.037,-0.017c-0.068,-0.04 -0.137,-0.096 -0.206,-0.167c-0.015,-0.015 -0.028,-0.031 -0.043,-0.047c-0.071,-0.08 -0.141,-0.17 -0.207,-0.282l-0.985,-1.681c-0.195,-0.195 -0.399,-0.381 -0.607,-0.561c-0.071,-0.06 -0.145,-0.117 -0.216,-0.176c-0.141,-0.116 -0.283,-0.231 -0.43,-0.341c-0.088,-0.065 -0.178,-0.128 -0.268,-0.191c-0.137,-0.097 -0.276,-0.192 -0.417,-0.284c-0.097,-0.063 -0.194,-0.123 -0.293,-0.183c-0.142,-0.087 -0.287,-0.172 -0.434,-0.253c-0.1,-0.056 -0.201,-0.112 -0.304,-0.165c-0.153,-0.081 -0.311,-0.158 -0.47,-0.233c-0.098,-0.047 -0.196,-0.095 -0.295,-0.14c-0.184,-0.082 -0.373,-0.159 -0.563,-0.235c-0.078,-0.032 -0.155,-0.065 -0.234,-0.096c-0.266,-0.101 -0.536,-0.196 -0.812,-0.283c-0.004,-0.002 -0.009,-0.003 -0.014,-0.004c-0.413,-0.131 -0.841,-0.243 -1.275,-0.344c-0.103,-0.025 -0.205,-0.049 -0.309,-0.071c-0.434,-0.094 -0.875,-0.178 -1.328,-0.245c-0.055,-0.007 -0.112,-0.012 -0.167,-0.02c-0.417,-0.057 -0.842,-0.103 -1.273,-0.137c-0.107,-0.009 -0.214,-0.018 -0.322,-0.026c-0.469,-0.031 -0.946,-0.051 -1.431,-0.056c-0.097,-0.001 -0.195,0.001 -0.293,0.001c-0.433,-0 -0.872,0.009 -1.317,0.03c-0.097,0.004 -0.192,0.006 -0.289,0.012c-0.503,0.027 -1.012,0.068 -1.526,0.121c-0.122,0.013 -0.244,0.027 -0.366,0.041c-0.48,0.055 -0.965,0.117 -1.454,0.193c-0.06,0.009 -0.119,0.016 -0.18,0.026c-0.534,0.085 -1.074,0.185 -1.616,0.295c-0.133,0.026 -0.265,0.053 -0.398,0.081c-0.547,0.116 -1.098,0.24 -1.654,0.379c-0.042,0.011 -0.083,0.023 -0.126,0.034c-0.526,0.134 -1.056,0.281 -1.588,0.436c-0.131,0.038 -0.263,0.076 -0.394,0.115c-0.558,0.167 -1.117,0.344 -1.68,0.535c-0.096,0.032 -0.193,0.067 -0.29,0.101c-0.505,0.173 -1.011,0.356 -1.519,0.547c-0.114,0.043 -0.229,0.085 -0.345,0.13c-0.566,0.217 -1.133,0.446 -1.701,0.685c-0.123,0.052 -0.245,0.105 -0.368,0.158c-0.519,0.223 -1.038,0.452 -1.558,0.693c-0.079,0.036 -0.158,0.071 -0.237,0.108c-0.572,0.267 -1.144,0.547 -1.714,0.835c-0.132,0.066 -0.264,0.134 -0.396,0.201c-0.581,0.298 -1.161,0.602 -1.738,0.92l0.07,0.965l-1.546,0.866c-0.289,-1.168 -0.715,-2.327 -1.314,-3.47c-0.944,-1.801 -2.14,-3.306 -3.584,-4.524l1.691,-0.947l0.82,0.552c13.158,-7.467 22.126,-18.522 19.65,-27.486l-0.985,-1.68c-0.29,-0.501 -0.262,-0.889 -0,-1.039c0.06,-0.033 0.127,-0.043 0.198,-0.041c0.02,0.001 0.04,0.005 0.062,0.009c0.025,0.003 0.05,0.001 0.077,0.01c0.033,0.011 0.069,0.031 0.104,0.048c0.012,0.007 0.022,0.01 0.034,0.016c0.073,0.042 0.145,0.101 0.216,0.172c0.016,0.016 0.031,0.034 0.047,0.05c0.072,0.08 0.142,0.169 0.207,0.277l20.361,34.731c0.284,0.484 0.264,0.917 0.002,1.065Z"/><clipPath id="_clip1"><path d="M146.54,31.4c-0.021,-0.111 0.006,-0.147 0.09,-0.095l2.435,-1.362c0.469,-0.262 1.021,-0.311 1.522,-0.151c0.102,0.032 0.202,0.074 0.298,0.123c12.384,-7.328 19.637,-17.293 17.829,-24.578l-0.86,-1.467c-0.906,-1.566 -0.346,-2.981 0.676,-3.569c0.013,-0.007 0.026,-0.015 0.039,-0.022c0.558,-0.304 1.212,-0.362 1.84,-0.162c0.668,0.212 1.265,0.713 1.688,1.423l20.362,34.731c0.81,1.382 0.516,2.935 -0.701,3.623c-0.565,0.31 -1.22,0.372 -1.847,0.173c-0.461,-0.147 -1.121,-0.51 -1.659,-1.415l-0.855,-1.459c-1.166,-1.105 -2.643,-1.946 -4.393,-2.504c-6.481,-2.06 -16.488,-0.115 -26.329,5.077c-0.033,0.626 -0.385,1.197 -0.944,1.511l-2.151,1.206c0.019,0.194 -0.047,0.229 -0.18,0.135c0.293,1.637 0.365,3.341 0.186,5.076c-1.031,9.96 -9.954,17.211 -19.915,16.18c-9.961,-1.031 -17.211,-9.954 -16.18,-19.915c1.03,-9.96 9.954,-17.21 19.914,-16.18c3.447,0.357 6.569,1.658 9.135,3.621Zm44.274,6.857c-0.06,0.034 -0.126,0.045 -0.194,0.046c-0.02,-0 -0.04,-0.005 -0.061,-0.008c-0.027,-0.003 -0.053,-0.001 -0.081,-0.009c-0.029,-0.009 -0.058,-0.027 -0.087,-0.042c-0.012,-0.006 -0.024,-0.01 -0.037,-0.017c-0.068,-0.04 -0.137,-0.096 -0.206,-0.167c-0.015,-0.015 -0.028,-0.031 -0.043,-0.047c-0.071,-0.08 -0.141,-0.17 -0.207,-0.282l-0.985,-1.681c-0.195,-0.195 -0.399,-0.381 -0.607,-0.561c-0.071,-0.06 -0.145,-0.117 -0.216,-0.176c-0.141,-0.116 -0.283,-0.231 -0.43,-0.341c-0.088,-0.065 -0.178,-0.128 -0.268,-0.191c-0.137,-0.097 -0.276,-0.192 -0.417,-0.284c-0.097,-0.063 -0.194,-0.123 -0.293,-0.183c-0.142,-0.087 -0.287,-0.172 -0.434,-0.253c-0.1,-0.056 -0.201,-0.112 -0.304,-0.165c-0.153,-0.081 -0.311,-0.158 -0.47,-0.233c-0.098,-0.047 -0.196,-0.095 -0.295,-0.14c-0.184,-0.082 -0.373,-0.159 -0.563,-0.235c-0.078,-0.032 -0.155,-0.065 -0.234,-0.096c-0.266,-0.101 -0.536,-0.196 -0.812,-0.283c-0.004,-0.002 -0.009,-0.003 -0.014,-0.004c-0.413,-0.131 -0.841,-0.243 -1.275,-0.344c-0.103,-0.025 -0.205,-0.049 -0.309,-0.071c-0.434,-0.094 -0.875,-0.178 -1.328,-0.245c-0.055,-0.007 -0.112,-0.012 -0.167,-0.02c-0.417,-0.057 -0.842,-0.103 -1.273,-0.137c-0.107,-0.009 -0.214,-0.018 -0.322,-0.026c-0.469,-0.031 -0.946,-0.051 -1.431,-0.056c-0.097,-0.001 -0.195,0.001 -0.293,0.001c-0.433,-0 -0.872,0.009 -1.317,0.03c-0.097,0.004 -0.192,0.006 -0.289,0.012c-0.503,0.027 -1.012,0.068 -1.526,0.121c-0.122,0.013 -0.244,0.027 -0.366,0.041c-0.48,0.055 -0.965,0.117 -1.454,0.193c-0.06,0.009 -0.119,0.016 -0.18,0.026c-0.534,0.085 -1.074,0.185 -1.616,0.295c-0.133,0.026 -0.265,0.053 -0.398,0.081c-0.547,0.116 -1.098,0.24 -1.654,0.379c-0.042,0.011 -0.083,0.023 -0.126,0.034c-0.526,0.134 -1.056,0.281 -1.588,0.436c-0.131,0.038 -0.263,0.076 -0.394,0.115c-0.558,0.167 -1.117,0.344 -1.68,0.535c-0.096,0.032 -0.193,0.067 -0.29,0.101c-0.505,0.173 -1.011,0.356 -1.519,0.547c-0.114,0.043 -0.229,0.085 -0.345,0.13c-0.566,0.217 -1.133,0.446 -1.701,0.685c-0.123,0.052 -0.245,0.105 -0.368,0.158c-0.519,0.223 -1.038,0.452 -1.558,0.693c-0.079,0.036 -0.158,0.071 -0.237,0.108c-0.572,0.267 -1.144,0.547 -1.714,0.835c-0.132,0.066 -0.264,0.134 -0.396,0.201c-0.581,0.298 -1.161,0.602 -1.738,0.92l0.07,0.965l-1.546,0.866c-0.289,-1.168 -0.715,-2.327 -1.314,-3.47c-0.944,-1.801 -2.14,-3.306 -3.584,-4.524l1.691,-0.947l0.82,0.552c13.158,-7.467 22.126,-18.522 19.65,-27.486l-0.985,-1.68c-0.29,-0.501 -0.262,-0.889 -0,-1.039c0.06,-0.033 0.127,-0.043 0.198,-0.041c0.02,0.001 0.04,0.005 0.062,0.009c0.025,0.003 0.05,0.001 0.077,0.01c0.033,0.011 0.069,0.031 0.104,0.048c0.012,0.007 0.022,0.01 0.034,0.016c0.073,0.042 0.145,0.101 0.216,0.172c0.016,0.016 0.031,0.034 0.047,0.05c0.072,0.08 0.142,0.169 0.207,0.277l20.361,34.731c0.284,0.484 0.264,0.917 0.002,1.065Z"/></clipPath><g clip-path="url(#_clip1)"><path id="Hilight" d="M137.702,33.787c-3.511,-0.995 -4.535,3.773 -7.248,2.012c-0.803,-0.521 -1.241,-1.282 -1.244,-2.096c0,-0.817 0.411,-1.509 1.237,-2.079c0.826,-0.57 1.828,-0.848 3.008,-0.836c1.176,0.012 2.177,0.309 3.005,0.895c0.827,0.587 2.378,2.425 1.242,2.104" style="fill:#fff;fill-rule:nonzero;"/></g></g></g></svg>